<?xml version="1.0" encoding="UTF-8" standalone="no"?>
<svg
   xmlns:dc="http://purl.org/dc/elements/1.1/"
   xmlns:cc="http://creativecommons.org/ns#"
   xmlns:rdf="http://www.w3.org/1999/02/22-rdf-syntax-ns#"
   xmlns:svg="http://www.w3.org/2000/svg"
   xmlns="http://www.w3.org/2000/svg"
   xmlns:sodipodi="http://sodipodi.sourceforge.net/DTD/sodipodi-0.dtd"
   xmlns:inkscape="http://www.inkscape.org/namespaces/inkscape"
   height="480pt"
   viewBox="0 0 480.08177 480"
   width="480pt"
   version="1.1"
   id="svg72"
   sodipodi:docname="adm.svg"
   inkscape:version="0.92.2 (5c3e80d, 2017-08-06)">
  <metadata
     id="metadata78">
    <rdf:RDF>
      <cc:Work
         rdf:about="">
        <dc:format>image/svg+xml</dc:format>
        <dc:type
           rdf:resource="http://purl.org/dc/dcmitype/StillImage" />
        <dc:title></dc:title>
      </cc:Work>
    </rdf:RDF>
  </metadata>
  <defs
     id="defs76" />
  <sodipodi:namedview
     pagecolor="#ffffff"
     bordercolor="#6123242"
     borderopacity="1"
     objecttolerance="10"
     gridtolerance="10"
     guidetolerance="10"
     inkscape:pageopacity="0"
     inkscape:pageshadow="2"
     inkscape:window-width="1366"
     inkscape:window-height="739"
     id="namedview74"
     showgrid="false"
     inkscape:zoom="0.36875"
     inkscape:cx="123.24742"
     inkscape:cy="522.86107"
     inkscape:window-x="0"
     inkscape:window-y="0"
     inkscape:window-maximized="1"
     inkscape:current-layer="svg72" />
  <path
     d="m24 8.039062h320c8.835938 0 16 7.164063 16 16v432c0 8.839844-7.164062 16-16 16h-320c-8.835938 0-16-7.160156-16-16v-432c0-8.835937 7.164062-16 16-16zm0 0"
     fill="#57b7eb"
     id="path2"
     style="fill:#87c851;fill-opacity:1" />
  <path
     d="m208 408.039062c-79.527344 0-144-64.46875-144-144v-256h-40c-8.835938 0-16 7.164063-16 16v432c0 8.839844 7.164062 16 16 16h320c8.835938 0 16-7.160156 16-16v-48zm0 0"
     fill="#4891d3"
     id="path4"
     style="fill:#008000;fill-opacity:1" />
  <path
     d="m80 56.039062h208v32h-208zm0 0"
     fill="#f9e109"
     id="path6"
     style="fill:#8bcf54;fill-opacity:1" />
  <path
     d="m264 128.039062h-160c-4.417969 0-8-3.578124-8-8 0-4.417968 3.582031-8 8-8h160c4.417969 0 8 3.582032 8 8 0 4.421876-3.582031 8-8 8zm0 0"
     fill="#39519d"
     id="path8" />
  <path
     d="m312 184.039062h-176c-4.417969 0-8-3.578124-8-8 0-4.417968 3.582031-8 8-8h176c4.417969 0 8 3.582032 8 8 0 4.421876-3.582031 8-8 8zm0 0"
     fill="#39519d"
     id="path10" />
  <path
     d="m224 232.039062h-160c-4.417969 0-8-3.578124-8-8 0-4.417968 3.582031-8 8-8h160c4.417969 0 8 3.582032 8 8 0 4.421876-3.582031 8-8 8zm0 0"
     fill="#39519d"
     id="path12" />
  <path
     d="m312 232.039062h-56c-4.417969 0-8-3.578124-8-8 0-4.417968 3.582031-8 8-8h56c4.417969 0 8 3.582032 8 8 0 4.421876-3.582031 8-8 8zm0 0"
     fill="#39519d"
     id="path14" />
  <path
     d="m144 272.039062h-80c-4.417969 0-8-3.578124-8-8 0-4.417968 3.582031-8 8-8h80c4.417969 0 8 3.582032 8 8 0 4.421876-3.582031 8-8 8zm0 0"
     fill="#39519d"
     id="path16" />
  <path
     d="m232 272.039062h-56c-4.417969 0-8-3.578124-8-8 0-4.417968 3.582031-8 8-8h56c4.417969 0 8 3.582032 8 8 0 4.421876-3.582031 8-8 8zm0 0"
     fill="#39519d"
     id="path18" />
  <path
     d="m288 88.039062h-208v-32zm0 0"
     fill="#fcbc04"
     id="path20"
     style="fill:#00b300;fill-opacity:1" />
  <path
     d="m160 380.039062c0 33.140626-26.863281 60-60 60s-60-26.859374-60-60c0-33.136718 26.863281-60 60-60s60 26.863282 60 60zm0 0"
     fill="#f9e109"
     id="path22"
     style="fill:#8bcf54;fill-opacity:1" />
  <path
     d="m100 440.039062c25.980469-.003906 49.003906-16.734374 57.039062-41.4375-35.207031-13.359374-63.785156-39.984374-79.597656-74.160156-26.605468 10.789063-41.835937 38.914063-36.335937 67.09375 5.496093 28.175782 30.1875 48.507813 58.894531 48.503906zm0 0"
     fill="#fcbc04"
     id="path24"
     style="fill:#00b300;fill-opacity:1" />
  <path
     d="m200 416.039062c-.871094.03125-1.738281-.105468-2.558594-.398437-4.164062-1.40625-6.414062-5.90625-5.042968-10.078125l19.679687-59.042969c2.410156-7.203125 9.554687-11.71875 17.09375-10.808593 7.542969.910156 13.402344 7 14.027344 14.570312l2.722656 32 2.878906-4.878906c3.058594-5.335938 8.90625-8.445313 15.039063-8 6.035156.503906 11.269531 4.375 13.519531 10l5.121094 12.636718 23.28125-29.597656c1.320312-1.671875 3.253906-2.746094 5.371093-2.988281 2.117188-.238281 4.246094.375 5.90625 1.707031 3.433594 2.75 4.003907 7.75 1.28125 11.199219l-23.359374 29.679687c-3.5625 4.453126-9.21875 6.671876-14.855469 5.832032s-10.398438-4.617188-12.503907-9.910156l-4.960937-12.558594-2.960937 4.878906c-3.484376 5.921875-10.359376 8.957031-17.082032 7.542969-6.722656-1.414063-11.792968-6.960938-12.597656-13.785157l-2.71875-32.476562-19.28125 58.71875c-1.027344 3.53125-4.328125 5.90625-8 5.757812zm0 0"
     fill="#39519d"
     id="path26" />
  <path
     d="m97.921875 402.761719c-4.226563.003906-8.28125-1.664063-11.28125-4.640625l-16.960937-16.960938c-1.515626-1.5-2.367188-3.546875-2.367188-5.679687 0-2.132813.851562-4.175781 2.367188-5.679688 3.121093-3.101562 8.160156-3.101562 11.28125 0l16.960937 16.960938 28.316406-28.242188c3.175781-2.71875 7.90625-2.535156 10.863281.421875 2.953126 2.953125 3.136719 7.683594.417969 10.859375l-28.238281 28.320313c-3.019531 2.996094-7.109375 4.664062-11.359375 4.640625zm0 0"
     fill="#39519d"
     id="path28" />
  <path
     d="m403.25 163.449219 41.570312 24-72 124.707031-41.570312-24zm0 0"
     fill="#fcbc04"
     id="path30"
     style="fill:#cbae63;fill-opacity:1" />
  <path
     d="m372.800781 312.199219-41.601562-24-17.039063 45.523437 27.679688 16zm0 0"
     fill="#a1d51c"
     id="path34"
     style="fill:#00b300;fill-opacity:1" />
  <path
     d="m314.128906 333.757812 27.710938 16-8 13.859376c-4.417969 7.652343-14.203125 10.273437-21.855469 5.855468-7.652344-4.417968-10.273437-14.203125-5.855469-21.855468zm0 0"
     fill="#e59730"
     id="path36"
     style="fill:#cbae63;fill-opacity:1" />
  <path
     d="m427.179688 121.914062 41.570312 24-24 41.570313-41.570312-24zm0 0"
     fill="#fcbc04"
     id="path38"
     style="fill:#00b300;fill-opacity:1" />
  <path
     d="m463.964844 106.203125c7.652344 4.417969 10.273437 14.203125 5.855468 21.855469l-8 13.859375-27.710937-16 8-13.859375c4.417969-7.652344 14.203125-10.273438 21.855469-5.855469zm0 0"
     fill="#c4f236"
     id="path40" />
  <path
     d="m432.480469 280.761719c-1.402344.007812-2.78125-.351563-4-1.039063-1.839844-1.070312-3.175781-2.828125-3.714844-4.882812-.542969-2.058594-.242187-4.246094.835937-6.078125l32-55.441407c1.0625-1.839843 1.351563-4.027343.796876-6.078124-.550782-2.066407-1.902344-3.820313-3.757813-4.882813l-69.28125-40c-3.808594-2.195313-5.128906-7.054687-2.960937-10.878906 1.058593-1.851563 2.808593-3.203125 4.867187-3.761719 2.054687-.554688 4.25-.265625 6.09375.800781l69.28125 40c5.515625 3.175781 9.542969 8.414063 11.199219 14.5625 1.65625 6.15625.792968 12.71875-2.398438 18.238281l-32 55.441407c-1.4375 2.484375-4.09375 4.011719-6.960937 4zm0 0"
     fill="#39519d"
     id="path44" />
  <path
     d="m456 112.039062c.039062-2.699218.417969-5.386718 1.121094-8-6.105469-.414062-11.914063 2.695313-14.960938 8l-8 13.84375 27.679688 16 4-6.882812c-6.300782-5.96875-9.863282-14.277344-9.839844-22.960938zm0 0"
     fill="#a1d51c"
     id="path46" />
  <path
     style="fill:#020407;fill-opacity:1"
     inkscape:connector-curvature="0"
     id="path48"
     d="M 479.19922,113.80078 C 477.54687,107.65625 473.51562,102.41797 468,99.242188 462.48047,96.050781 455.91797,95.1875 449.76172,96.839844 c -6.14844,1.65625 -11.38672,5.683596 -14.5625,11.199216 l -4,6.96094 c -3.80078,-2.18359 -8.65625,-0.89844 -10.87891,2.88281 L 400,152.51953 l -6.96094,-4 c -1.84375,-1.06641 -4.03906,-1.35547 -6.09375,-0.80078 -2.05859,0.55859 -3.80859,1.91016 -4.86719,3.76172 -2.16796,3.82422 -0.84765,8.68359 2.96094,10.8789 l 6.96094,4 -68,117.83985 -16.80078,44.88281 -8,14.95703 c -4.6836,8.14844 -4.1836,18.27735 1.28125,25.92188 l -18,22.07812 -5.03906,-12.63672 c -2.27344,-5.63281 -7.53516,-9.49218 -13.58594,-9.96484 -6.05469,-0.47656 -11.85547,2.51562 -14.97656,7.72266 l -2.87891,4.8789 -2.71875,-32 c -0.625,-7.57031 -6.48828,-13.65625 -14.02734,-14.57031 -7.54297,-0.91016 -14.6836,3.60937 -17.09375,10.8125 l -19.67969,59.03906 c -1.375,4.17578 0.875,8.67578 5.03906,10.08203 0.78125,0.36328 1.62109,0.58203 2.48047,0.63672 3.4375,0.0117 6.5,-2.17969 7.60156,-5.4375 L 227.19922,351.5625 230,384.03906 c 0.57812,6.92969 5.55859,12.69141 12.33203,14.26172 6.77344,1.57031 13.78125,-1.41406 17.34766,-7.37891 l 2.96093,-4.88281 4.96094,12.5625 c 2.10547,5.29297 6.86719,9.07031 12.50391,9.91016 5.63672,0.83984 11.29297,-1.38281 14.85547,-5.83203 l 18.64062,-23.59766 c 2.0625,0.53906 4.1875,0.80859 6.32032,0.80078 8.57421,0.0664 16.53515,-4.44922 20.8789,-11.84375 l 8,-13.35937 30.48047,-37.03907 L 448,198.35937 l 6.96094,4 c 1.85547,1.0625 3.20703,2.81641 3.75781,4.88282 0.55469,2.05078 0.26562,4.23828 -0.79688,6.07812 l -32,55.44141 c -1.20703,1.82031 -1.61718,4.05469 -1.13281,6.1875 0.48438,2.1289 1.81641,3.96875 3.69141,5.08984 1.84375,1.07031 4.03906,1.35938 6.09375,0.80469 2.05859,-0.55859 3.80859,-1.91016 4.86719,-3.76172 l 32,-55.44141 c 3.1914,-5.51953 4.05468,-12.08203 2.39843,-18.23828 -1.65625,-6.14843 -5.68359,-11.38672 -11.19922,-14.5625 l -6.96093,-4 20,-34.64062 c 2.18359,-3.80078 0.89843,-8.65235 -2.87891,-10.87891 l 4,-6.96094 c 3.27734,-5.60546 4.14453,-12.30078 2.39844,-18.55859 z m -30.16016,2.23828 c 1.0586,-1.85156 2.81641,-3.20703 4.88281,-3.75781 2.05469,-0.50781 4.22657,-0.22266 6.07813,0.80078 1.85547,1.0586 3.20703,2.81641 3.76172,4.87891 0.50781,2.05469 0.22265,4.22656 -0.80078,6.07812 l -4,6.96094 -13.92188,-8 z M 340,339.40234 l -4,-2.32031 -11.83984,-6.88281 11.35937,-30.39844 25.19922,14.55859 z m -24,23.11719 c -3.37891,-2.35547 -4.41797,-6.88672 -2.39844,-10.48047 l 4,-6.95703 13.91797,8 -4,6.87891 c -1.12109,1.94531 -3.0039,3.32812 -5.19531,3.8164 -2.19141,0.48438 -4.48438,0.0312 -6.32422,-1.25781 z m 53.83984,-61.27734 -27.67968,-16 64,-110.88282 27.67968,16 z m 72,-124.72266 -27.67968,-16 16,-27.67969 27.67968,16 z m 0,0" />
  <path
     style="fill:#020407;fill-opacity:1"
     inkscape:connector-curvature="0"
     id="path50"
     d="M 126.23828,358.51953 97.921875,386.76172 80.960938,369.80078 c -3.121094,-3.10156 -8.160157,-3.10156 -11.28125,0 -1.515626,1.50391 -2.367188,3.54688 -2.367188,5.67969 0,2.13281 0.851562,4.17969 2.367188,5.67969 l 16.960937,16.96093 c 3,2.97657 7.054687,4.64453 11.28125,4.64063 4.250005,0.0234 8.339845,-1.64453 11.359375,-4.64063 l 28.23828,-28.32031 c 2.71875,-3.17578 2.53516,-7.90625 -0.41797,-10.85937 -2.95703,-2.95704 -7.6875,-3.14063 -10.86328,-0.42188 z m 0,0" />
  <path
     style="fill:#020407;fill-opacity:1"
     inkscape:connector-curvature="0"
     id="path52"
     d="m 32,380.03906 c 0,37.5586 30.445312,68 68,68 37.55469,0 68,-30.4414 68,-68 0,-4.41797 -3.58203,-8 -8,-8 -4.41797,0 -8,3.58203 -8,8 0,28.71875 -23.28125,52 -52,52 -28.71875,0 -52,-23.28125 -52,-52 0,-28.71875 23.28125,-52 52,-52 11.25781,-0.0312 22.21484,3.6211 31.19922,10.40235 3.53515,2.65234 8.55078,1.93359 11.19922,-1.60157 2.65234,-3.53515 1.9375,-8.54687 -1.59766,-11.19922 C 120.19531,310.1875 92.625,307.70312 69.589844,319.21875 46.550781,330.73828 32,354.28516 32,380.03906 Z m 0,0" />
  <path
     style="fill:#020407;fill-opacity:1"
     inkscape:connector-curvature="0"
     id="path54"
     d="m 288,64.039062 c 4.41797,0 8,-3.578124 8,-8 0,-4.417968 -3.58203,-8 -8,-8 H 80 c -4.417969,0 -8,3.582032 -8,8 v 32 c 0,4.421876 3.582031,8 8,8 h 208 c 4.41797,0 8,-3.578124 8,-8 0,-4.417968 -3.58203,-8 -8,-8 H 88 v -16 h 40.15742 z"
     sodipodi:nodetypes="sssssssssscccs" />
  <path
     style="fill:#020407;fill-opacity:1"
     inkscape:connector-curvature="0"
     id="path56"
     d="m 104,112.03906 c -4.417969,0 -8,3.58203 -8,8 0,4.42188 3.582031,8 8,8 h 160 c 4.41797,0 8,-3.57812 8,-8 0,-4.41797 -3.58203,-8 -8,-8 z m 0,0" />
  <path
     style="fill:#020407;fill-opacity:1"
     inkscape:connector-curvature="0"
     id="path58"
     d="M 312,168.03906 H 136 c -4.41797,0 -8,3.58203 -8,8 0,4.42188 3.58203,8 8,8 h 176 c 4.41797,0 8,-3.57812 8,-8 0,-4.41797 -3.58203,-8 -8,-8 z m 0,0" />
  <path
     style="fill:#020407;fill-opacity:1"
     inkscape:connector-curvature="0"
     id="path60"
     d="m 232,224.03906 c 0,-4.41797 -3.58203,-8 -8,-8 H 64 c -4.417969,0 -8,3.58203 -8,8 0,4.42188 3.582031,8 8,8 h 160 c 4.41797,0 8,-3.57812 8,-8 z m 0,0" />
  <path
     style="fill:#020407;fill-opacity:1"
     inkscape:connector-curvature="0"
     id="path62"
     d="m 312,216.03906 h -56 c -4.41797,0 -8,3.58203 -8,8 0,4.42188 3.58203,8 8,8 h 56 c 4.41797,0 8,-3.57812 8,-8 0,-4.41797 -3.58203,-8 -8,-8 z m 0,0" />
  <path
     style="fill:#020407;fill-opacity:1"
     inkscape:connector-curvature="0"
     id="path64"
     d="m 144,272.03906 c 4.41797,0 8,-3.57812 8,-8 0,-4.41797 -3.58203,-8 -8,-8 H 64 c -4.417969,0 -8,3.58203 -8,8 0,4.42188 3.582031,8 8,8 z m 0,0" />
  <path
     style="fill:#020407;fill-opacity:1"
     inkscape:connector-curvature="0"
     id="path66"
     d="m 176,272.03906 h 56 c 4.41797,0 8,-3.57812 8,-8 0,-4.41797 -3.58203,-8 -8,-8 h -56 c -4.41797,0 -8,3.58203 -8,8 0,4.42188 3.58203,8 8,8 z m 0,0" />
  <path
     style="fill:#020407;fill-opacity:1"
     inkscape:connector-curvature="0"
     id="path68"
     d="m 360,368.03906 c -4.41797,0 -8,3.58203 -8,8 v 80 c 0,4.42188 -3.58203,8 -8,8 H 24 c -4.417969,0 -8,-3.57812 -8,-8 V 24.039062 c 0,-4.417968 3.582031,-8 8,-8 h 320 c 4.41797,0 8,3.582032 8,8 V 174.28125 c 0,4.41797 3.58203,8 8,8 4.41797,0 8,-3.58203 8,-8 V 24.039062 C 368,10.785156 357.25391,0.0390625 344,0.0390625 H 24 c -13.253906,0 -24,10.7460935 -24,23.9999995 V 456.03906 c 0,13.25781 10.746094,24 24,24 h 320 c 13.25391,0 24,-10.74219 24,-24 v -80 c 0,-4.41797 -3.58203,-8 -8,-8 z m 0,0" />
</svg>
