<?xml version="1.0" encoding="UTF-8" standalone="no"?>
<svg
   xmlns:dc="http://purl.org/dc/elements/1.1/"
   xmlns:cc="http://creativecommons.org/ns#"
   xmlns:rdf="http://www.w3.org/1999/02/22-rdf-syntax-ns#"
   xmlns:svg="http://www.w3.org/2000/svg"
   xmlns="http://www.w3.org/2000/svg"
   xmlns:sodipodi="http://sodipodi.sourceforge.net/DTD/sodipodi-0.dtd"
   xmlns:inkscape="http://www.inkscape.org/namespaces/inkscape"
   height="496pt"
   viewBox="0 0 499 496"
   width="499pt"
   version="1.1"
   id="svg12"
   sodipodi:docname="konsultasi.svg"
   inkscape:version="0.92.2 (5c3e80d, 2017-08-06)">
  <metadata
     id="metadata18">
    <rdf:RDF>
      <cc:Work
         rdf:about="">
        <dc:format>image/svg+xml</dc:format>
        <dc:type
           rdf:resource="http://purl.org/dc/dcmitype/StillImage" />
        <dc:title></dc:title>
      </cc:Work>
    </rdf:RDF>
  </metadata>
  <defs
     id="defs16" />
  <sodipodi:namedview
     pagecolor="#ffffff"
     bordercolor="#6123242"
     borderopacity="1"
     objecttolerance="10"
     gridtolerance="10"
     guidetolerance="10"
     inkscape:pageopacity="0"
     inkscape:pageshadow="2"
     inkscape:window-width="1366"
     inkscape:window-height="739"
     id="namedview14"
     showgrid="false"
     inkscape:snap-midpoints="true"
     inkscape:snap-smooth-nodes="true"
     inkscape:object-paths="false"
     inkscape:zoom="0.41765456"
     inkscape:cx="398.28871"
     inkscape:cy="365.96689"
     inkscape:window-x="0"
     inkscape:window-y="0"
     inkscape:window-maximized="1"
     inkscape:current-layer="svg12" />
  <path
     style="fill:#000000;stroke-width:1.0180676"
     d="m 129.7481,117.79444 c -25.34896,0.0117 -47.05995,23.58707 -45.301774,48.88106 -1.015768,15.24149 0.194687,32.05254 11.043322,43.90881 1.352521,2.99935 9.546662,6.28586 3.602077,8.00208 -11.920444,5.69878 -16.372503,19.87746 -14.645399,32.26819 2.285052,9.52567 -10.613262,3.86799 -16.341557,5.38032 -5.915278,1.44237 -18.898558,-4.18325 -16.236689,5.83627 0.269217,34.67049 -0.521218,69.38235 0.362487,104.02925 2.440497,24.55502 23.459976,45.3466 47.925813,47.98052 -2.337464,23.40058 -4.675568,46.80108 -7.012644,70.20168 -30.047674,0 -60.09535,0 -90.1430267,0 -1.6894685,9.06461 0.6695335,14.08073 10.5052877,11.62011 163.262083,0 326.524163,0 489.786243,0 1.68948,-9.0646 -0.66953,-14.08073 -10.50528,-11.62011 -20.93154,0 -41.86309,0 -62.79464,0 0,-44.99399 0,-89.988 0,-134.982 5.92929,-1.44585 18.93692,4.18664 16.28913,-5.83627 0,-12.78736 0,-25.57472 0,-38.36209 -10.85941,0 -21.71883,0 -32.57824,0 -0.92288,-14.08711 1.9459,-28.65058 -1.60498,-42.44291 -3.92313,-12.87735 -16.82418,-19.87344 -29.35172,-21.98204 -8.68547,-2.47877 -17.37086,-4.95783 -26.05637,-7.43641 0.99877,-7.35391 -2.99908,-16.68414 4.19025,-21.45057 10.96015,-11.32895 13.33211,-27.79531 12.09886,-42.89432 2.34804,-23.86199 -15.58054,-47.51812 -39.48145,-50.58633 -25.38499,-4.54666 -51.30707,15.52259 -53.34033,41.2255 -0.75749,16.79586 -2.06292,35.78589 9.58196,49.55815 2.86942,4.1053 8.3851,6.61265 6.46322,12.5001 0.83148,7.42933 0.91513,14.29415 -8.4285,14.04601 -14.5728,5.53294 -33.67692,5.21339 -43.15866,19.57411 -3.53542,5.05301 -5.2225,11.18947 -5.4373,17.31047 -16.26101,0 -32.52202,0 -48.78302,0 -15.65418,-15.65271 -31.30541,-31.30837 -46.96147,-46.95918 20.42109,-5.70162 35.57174,-26.38812 34.07835,-47.32623 1.06038,-15.41332 -0.26521,-32.4423 -11.34197,-44.34199 C 157.21912,123.4327 143.5203,117.3442 129.7481,117.79444 Z"
     id="path1059"
     inkscape:connector-curvature="0" />
  <path
     style="fill:#cbae63;fill-opacity:1;stroke-width:1.0180676"
     d="m 130.9792,129.39859 c 19.55355,-0.55129 36.59387,17.8154 34.91274,37.24727 0.78415,12.8683 0.5936,27.59021 -9.09865,37.43876 -12.74902,14.87446 -38.01547,15.16114 -51.09473,0.57451 -9.78744,-9.54534 -10.578032,-24.10507 -9.632125,-36.89846 -1.943711,-18.49678 12.719545,-36.76083 31.379075,-38.18426 1.17407,-0.11784 2.35375,-0.17672 3.53369,-0.17782 z"
     id="path1057"
     inkscape:connector-curvature="0" />
  <path
     style="fill:#cbae63;fill-opacity:1;stroke-width:1.0180676"
     d="m 326.44639,129.39859 c 19.55346,-0.55231 36.59746,17.8148 34.91276,37.24727 0.78317,12.86117 0.59703,27.56874 -9.07814,37.42053 -12.74834,14.89111 -38.03008,15.18625 -51.11753,0.59046 -9.78259,-9.54773 -10.57532,-24.10321 -9.62985,-36.89618 -1.94046,-18.49689 12.72114,-36.76136 31.38136,-38.18426 1.17327,-0.11828 2.35227,-0.17635 3.5314,-0.17782 z"
     id="path1055"
     inkscape:connector-curvature="0" />
  <path
     style="fill:#cccccc;stroke-width:1.0180676"
     d="m 345.07003,226.61582 c 1.00658,6.21199 -0.16602,12.22371 -5.46239,16.02695 -7.75133,8.01983 -21.53072,6.67138 -28.27628,-1.94694 -5.34923,-4.28315 -3.09154,-11.36863 -3.5086,-17.35152 11.80667,4.98541 25.44208,4.99225 37.24727,-0.002 0,1.09126 0,2.18252 0,3.27378 z"
     id="path1053"
     inkscape:connector-curvature="0" />
  <path
     style="fill:#008000;fill-opacity:1;stroke-width:1.0180676"
     d="m 123.82292,227.13334 c 9.76442,0.43864 14.21766,11.43653 21.31292,16.56183 13.48299,13.48299 26.96598,26.96596 40.44895,40.44895 26.11187,0.27942 52.31886,-0.52763 78.3793,0.34653 8.73429,1.81664 10.6004,14.94424 2.71523,19.12063 -8.14807,3.74909 -17.7681,0.31937 -26.39999,1.49098 -22.05777,0 -44.11552,0 -66.17329,0 -19.92274,-20.33209 -40.71238,-39.93515 -60.15463,-60.67213 -4.5645,-7.44739 1.11585,-17.42879 9.87151,-17.29679 z"
     id="path1051"
     inkscape:connector-curvature="0" />
  <path
     style="fill:#008000;stroke-width:1.0180676"
     d="m 100.95431,240.68671 c 1.45054,14.61966 16.2692,22.02019 24.74034,32.4362 13.39909,13.39858 26.79822,26.79713 40.19729,40.19573 0,11.994 0,23.98799 0,35.98198 8.14418,0 16.28837,0 24.43255,0 -0.76379,6.61134 1.53753,16.28779 -1.16726,20.95815 -23.8483,-0.43397 -47.81087,0.81605 -71.59929,-0.52415 -14.05433,-2.46608 -23.422633,-17.05771 -21.491505,-30.91194 0.191407,-32.7398 -0.372961,-65.53718 0.264453,-98.24312 2.705509,-6.32844 1.893193,-8.3678 4.623422,0.10715 z"
     id="path1049"
     inkscape:connector-curvature="0" />
  <path
     style="fill:#008000;stroke-width:1.0180676"
     d="m 300.3382,245.62473 c 9.39573,13.96056 30.26908,18.98664 43.90882,8.18903 4.04064,-1.98902 6.66287,-7.90767 10.4011,-9.08348 12.75485,4.41107 26.57459,6.18378 38.8128,11.89902 9.04055,5.30055 9.53019,16.97163 8.62218,26.2085 0,7.41921 0,14.83842 0,22.25762 -40.3721,0 -80.7442,0 -121.1163,0 7.36075,-13.60262 -2.74157,-32.34061 -18.51877,-32.54632 -4.08682,-1.046 -13.96082,2.90687 -11.02279,-4.05803 1.68271,-9.86352 11.62536,-15.12709 20.74875,-16.31971 9.06509,-2.58955 18.13024,-5.1789 27.19529,-7.76859 l 0.72523,0.91462 z"
     id="path1047"
     inkscape:connector-curvature="0" />
  <path
     style="fill:#705d48;fill-opacity:1;stroke-width:1.0180676"
     d="m 65.822695,267.85501 c 5.676394,1.69872 18.527029,-3.77678 18.623631,3.50176 0.426912,26.28323 -0.836127,52.66815 0.595032,78.89225 3.052077,19.65908 22.906152,33.90342 42.490782,31.62984 20.93078,0 41.86157,0 62.79235,0 -0.76379,6.61134 1.53753,16.2878 -1.16726,20.95815 -29.36479,-0.27995 -58.77742,0.53136 -88.11628,-0.35109 -22.220147,-2.33973 -39.583887,-24.0449 -37.552764,-46.20686 0,-29.47468 1e-6,-58.94937 0,-88.42405 h 1.167254 z"
     id="path1045"
     inkscape:connector-curvature="0" />
  <path
     style="fill:#004600;fill-opacity:1;stroke-width:1.0180676"
     d="m 179.84656,316.72237 c 84.93826,0 169.87653,0 254.81478,0 -0.76379,6.61134 1.53753,16.28779 -1.16725,20.95814 -85.32735,0 -170.65469,0 -255.98204,0 0.7638,-6.61133 -1.53753,-16.28778 1.16726,-20.95814 z"
     id="path1043"
     inkscape:connector-curvature="0" />
  <path
     style="fill:#705d48;fill-opacity:1;stroke-width:1.0180676"
     d="m 204.27911,349.30062 c 71.36436,0 142.72873,0 214.09312,0 -0.76381,6.61134 1.53751,16.28779 -1.16726,20.95815 -7.75587,0 -15.51172,0 -23.26758,0 -1.68947,9.06459 0.66954,14.08072 10.50529,11.62009 7.26555,0.1012 17.27317,-2.5396 13.92955,8.17078 0,31.411 0,62.822 0,94.23298 -7.72547,0 -15.45093,0 -23.17639,0 -5.42971,-10.85941 -10.85942,-21.71883 -16.28912,-32.57824 -45.83221,0 -91.66442,0 -137.49662,0 -5.42971,10.85941 -10.85942,21.71883 -16.28912,32.57824 -7.72546,0 -15.45092,0 -23.17638,0 0,-34.13458 0,-68.26917 0,-102.40376 57.01155,0 114.02311,0 171.03465,0 1.68947,-9.06459 -0.66953,-14.08072 -10.50529,-11.62009 -53.50978,0 -107.01957,-2e-5 -160.52936,0 0.76379,-6.61134 -1.53752,-16.2878 1.16725,-20.95815 z"
     id="path1041"
     inkscape:connector-curvature="0" />
  <path
     style="fill:#705d48;fill-opacity:1;stroke-width:1.0180676"
     d="m 113.91493,414.45711 c 5.38568,1.498 17.44291,-3.03955 18.55695,2.32284 -2.24998,22.50089 -4.50082,45.0017 -6.74989,67.50267 -6.96781,0 -13.93562,0 -20.90342,0 2.32932,-23.275 4.65594,-46.55027 6.983,-69.82551 h 1.16725 z"
     id="path1039"
     inkscape:connector-curvature="0" />
  <path
     style="fill:#ffffff;stroke-width:1.0180676"
     d="m 146.49091,414.45711 c 14.61119,0 29.22238,0 43.83358,0 0,23.27517 0,46.55035 0,69.82551 -17.6418,0 -35.2836,0 -52.9254,0 2.32348,-23.27543 4.65348,-46.55021 6.97844,-69.82551 h 1.16726 z"
     id="path1037"
     inkscape:connector-curvature="0" />
  <path
     style="fill:#ffffff;stroke-width:1.0180676"
     d="m 250.03684,463.32448 c 40.56208,0 81.12416,0 121.68625,0 3.49282,6.98596 6.98493,13.97228 10.47792,20.95814 -48.02916,0 -96.05833,0 -144.08749,0 3.49304,-6.98622 6.98699,-13.97199 10.4802,-20.95814 h 1.16726 z"
     id="path10"
     inkscape:connector-curvature="0" />
  <g
     id="g933"
     transform="matrix(0.64071244,0,0,0.64071244,98.639196,19.776611)">
    <g
       transform="matrix(0.40244944,0,0,0.35782762,100.97,-32.623805)"
       style="fill:#000000;fill-opacity:1;stroke:none"
       id="g830">
      <path
         style="fill:#000000;fill-opacity:1;stroke:none"
         inkscape:connector-curvature="0"
         d="m 393.872,454.517 c -2.304,0 -4.583,-0.804 -6.412,-2.354 L 288.145,367.969 H 68.115 C 30.556,367.968 0,337.242 0,299.474 V 103.977 C 0,66.209 30.556,35.483 68.115,35.483 h 353.77 c 37.559,0 68.115,30.727 68.115,68.494 v 195.497 c 0,37.768 -30.556,68.494 -68.115,68.494 h -18.071 v 76.549 c 0,3.891 -2.243,7.428 -5.752,9.067 -1.339,0.626 -2.769,0.933 -4.19,0.933 z M 68.115,55.483 c -26.592,0 -48.226,21.754 -48.226,48.494 v 195.497 c 0,26.739 21.634,48.494 48.226,48.494 h 223.662 c 2.346,0 4.616,0.834 6.411,2.354 l 85.737,72.685 v -65.039 c 0,-5.523 4.453,-10 9.945,-10 h 28.015 c 26.592,0 48.226,-21.755 48.226,-48.494 V 103.977 c 0,-26.74 -21.634,-48.494 -48.226,-48.494 H 68.115 Z"
         id="path828" />
    </g>
    <g
       transform="matrix(0.40244944,0,0,0.35782762,100.97,-32.623805)"
       style="fill:#cbae63;fill-opacity:1;stroke:none"
       id="g844">
      <g
         style="fill:#cbae63;fill-opacity:1;stroke:none"
         id="g834">
        <path
           style="fill:#cbae63;fill-opacity:1;stroke:none"
           inkscape:connector-curvature="0"
           d="M 405.168,147.469 H 84.832 c -5.492,0 -9.944,-4.478 -9.944,-10 0,-5.523 4.452,-10 9.944,-10 h 320.335 c 5.492,0 9.944,4.477 9.944,10 0,5.522 -4.451,10 -9.943,10 z"
           id="path832" />
      </g>
      <g
         style="fill:#cbae63;fill-opacity:1;stroke:none"
         id="g838">
        <path
           style="fill:#cbae63;fill-opacity:1;stroke:none"
           inkscape:connector-curvature="0"
           d="M 405.168,211.503 H 84.832 c -5.492,0 -9.944,-4.478 -9.944,-10 0,-5.523 4.452,-10 9.944,-10 h 320.335 c 5.492,0 9.944,4.477 9.944,10 0,5.522 -4.451,10 -9.943,10 z"
           id="path836" />
      </g>
      <g
         style="fill:#cbae63;fill-opacity:1;stroke:none"
         id="g842">
        <path
           style="fill:#cbae63;fill-opacity:1;stroke:none"
           inkscape:connector-curvature="0"
           d="M 405.168,275.538 H 84.832 c -5.492,0 -9.944,-4.478 -9.944,-10 0,-5.523 4.452,-10 9.944,-10 h 320.335 c 5.492,0 9.944,4.476 9.944,10 0,5.522 -4.451,10 -9.943,10 z"
           id="path840" />
      </g>
    </g>
  </g>
  <g
     style="fill:#a0894e;fill-opacity:1;stroke:none"
     id="g848"
     transform="matrix(0.40244944,0,0,0.35782762,100.97,-32.623805)" />
  <g
     style="fill:#a0894e;fill-opacity:1;stroke:none"
     id="g850"
     transform="matrix(0.40244944,0,0,0.35782762,100.97,-32.623805)" />
  <g
     style="fill:#a0894e;fill-opacity:1;stroke:none"
     id="g852"
     transform="matrix(0.40244944,0,0,0.35782762,100.97,-32.623805)" />
  <g
     style="fill:#a0894e;fill-opacity:1;stroke:none"
     id="g854"
     transform="matrix(0.40244944,0,0,0.35782762,100.97,-32.623805)" />
  <g
     style="fill:#a0894e;fill-opacity:1;stroke:none"
     id="g856"
     transform="matrix(0.40244944,0,0,0.35782762,100.97,-32.623805)" />
  <g
     style="fill:#a0894e;fill-opacity:1;stroke:none"
     id="g858"
     transform="matrix(0.40244944,0,0,0.35782762,100.97,-32.623805)" />
  <g
     style="fill:#a0894e;fill-opacity:1;stroke:none"
     id="g860"
     transform="matrix(0.40244944,0,0,0.35782762,100.97,-32.623805)" />
  <g
     style="fill:#a0894e;fill-opacity:1;stroke:none"
     id="g862"
     transform="matrix(0.40244944,0,0,0.35782762,100.97,-32.623805)" />
  <g
     style="fill:#a0894e;fill-opacity:1;stroke:none"
     id="g864"
     transform="matrix(0.40244944,0,0,0.35782762,100.97,-32.623805)" />
  <g
     style="fill:#a0894e;fill-opacity:1;stroke:none"
     id="g866"
     transform="matrix(0.40244944,0,0,0.35782762,100.97,-32.623805)" />
  <g
     style="fill:#a0894e;fill-opacity:1;stroke:none"
     id="g868"
     transform="matrix(0.40244944,0,0,0.35782762,100.97,-32.623805)" />
  <g
     style="fill:#a0894e;fill-opacity:1;stroke:none"
     id="g870"
     transform="matrix(0.40244944,0,0,0.35782762,100.97,-32.623805)" />
  <g
     style="fill:#a0894e;fill-opacity:1;stroke:none"
     id="g872"
     transform="matrix(0.40244944,0,0,0.35782762,100.97,-32.623805)" />
  <g
     style="fill:#a0894e;fill-opacity:1;stroke:none"
     id="g874"
     transform="matrix(0.40244944,0,0,0.35782762,100.97,-32.623805)" />
  <g
     style="fill:#a0894e;fill-opacity:1;stroke:none"
     id="g876"
     transform="matrix(0.40244944,0,0,0.35782762,100.97,-32.623805)" />
</svg>
