<?xml version="1.0" encoding="UTF-8" standalone="no"?>
<svg
   xmlns:dc="http://purl.org/dc/elements/1.1/"
   xmlns:cc="http://creativecommons.org/ns#"
   xmlns:rdf="http://www.w3.org/1999/02/22-rdf-syntax-ns#"
   xmlns:svg="http://www.w3.org/2000/svg"
   xmlns="http://www.w3.org/2000/svg"
   xmlns:sodipodi="http://sodipodi.sourceforge.net/DTD/sodipodi-0.dtd"
   xmlns:inkscape="http://www.inkscape.org/namespaces/inkscape"
   height="496pt"
   viewBox="0 0 499 496"
   width="499pt"
   version="1.1"
   id="svg12"
   sodipodi:docname="konsultasi.svg"
   inkscape:version="0.92.2 (5c3e80d, 2017-08-06)">
  <metadata
     id="metadata18">
    <rdf:RDF>
      <cc:Work
         rdf:about="">
        <dc:format>image/svg+xml</dc:format>
        <dc:type
           rdf:resource="http://purl.org/dc/dcmitype/StillImage" />
        <dc:title></dc:title>
      </cc:Work>
    </rdf:RDF>
  </metadata>
  <defs
     id="defs16" />
  <sodipodi:namedview
     pagecolor="#ffffff"
     bordercolor="#6123242"
     borderopacity="1"
     objecttolerance="10"
     gridtolerance="10"
     guidetolerance="10"
     inkscape:pageopacity="0"
     inkscape:pageshadow="2"
     inkscape:window-width="1366"
     inkscape:window-height="721"
     id="namedview14"
     showgrid="false"
     inkscape:snap-midpoints="true"
     inkscape:snap-smooth-nodes="true"
     inkscape:object-paths="false"
     inkscape:zoom="0.41765456"
     inkscape:cx="440.18937"
     inkscape:cy="365.96689"
     inkscape:window-x="0"
     inkscape:window-y="18"
     inkscape:window-maximized="1"
     inkscape:current-layer="svg12" />
  <path
     style="fill:#000000;stroke-width:0.87219012"
     d="m 147.42969,170.07031 c -21.71675,0.01 -40.3168,20.20731 -38.81055,41.87696 -0.87022,13.05756 0.16679,27.45978 9.46094,37.61718 1.15872,2.56958 8.17873,5.38517 3.08594,6.85547 -10.21238,4.88221 -14.02651,17.02925 -12.54688,27.64453 1.95763,8.16075 -9.092503,3.31375 -13.999999,4.60938 -5.067686,1.2357 -16.19061,-3.58384 -13.910157,5 0.230642,29.70261 -0.446533,59.44065 0.310547,89.12305 2.090802,21.03656 20.098429,38.84895 41.058589,41.10546 -2.00253,20.04754 -4.00561,40.09502 -6.00781,60.14258 -25.742185,0 -51.484372,0 -77.22656,0 -1.447387,7.76575 0.573597,12.06312 9,9.95508 139.86849,0 279.73698,0 419.60547,0 1.44739,-7.76575 -0.5736,-12.06312 -9,-9.95508 -17.93229,0 -35.86458,0 -53.79688,0 0,-38.54687 0,-77.09375 0,-115.64062 5.07969,-1.23868 16.22347,3.58674 13.95508,-5 0,-10.95508 0,-21.91016 0,-32.86524 -9.30338,0 -18.60677,0 -27.91015,0 -0.79064,-12.06859 1.66708,-24.54528 -1.375,-36.36133 -3.36099,-11.03217 -14.41347,-17.0258 -25.14596,-18.83226 -7.44094,-2.12359 -14.88181,-4.24743 -22.32279,-6.37086 0.85566,-6.30018 -2.56934,-14.29349 3.58984,-18.37695 9.38968,-9.70564 11.42177,-23.81256 10.36523,-36.74805 2.01159,-20.44284 -13.34803,-40.70932 -33.82421,-43.33789 -21.74761,-3.89517 -43.95535,13.29838 -45.69727,35.31836 -0.64895,14.3892 -1.76733,30.65818 8.20898,42.45703 2.45826,3.51706 7.18361,5.66513 5.53711,10.70898 0.71234,6.36479 0.784,12.24596 -7.22079,12.03338 -12.48469,4.74013 -28.8514,4.46637 -36.97452,16.76936 -3.02883,4.32897 -4.47417,9.58615 -4.6582,14.83008 -13.93099,0 -27.86198,0 -41.79297,0 -13.41111,-13.40986 -26.8197,-26.82224 -40.23242,-40.23047 17.49498,-4.88464 30.47471,-22.607 29.19531,-40.54492 0.90844,-13.20477 -0.22721,-27.79369 -9.7168,-37.98829 -7.66839,-8.96456 -19.40432,-14.18065 -31.20312,-13.79492 z"
     id="path1059"
     inkscape:connector-curvature="0" />
  <path
     style="fill:#cbae63;fill-opacity:1;stroke-width:0.87219012"
     d="m 148.48438,180.01172 c 16.75175,-0.4723 31.35039,15.26265 29.91015,31.91016 0.67179,11.02442 0.50854,23.63685 -7.79492,32.07421 -10.92223,12.74312 -32.56829,12.98872 -43.77344,0.49219 -8.38501,-8.1776 -9.06232,-20.65109 -8.25195,-31.61133 -1.6652,-15.8464 10.89698,-31.49342 26.88281,-32.71289 1.00584,-0.10096 2.01649,-0.1514 3.02735,-0.15234 z"
     id="path1057"
     inkscape:connector-curvature="0" />
  <path
     style="fill:#cbae63;fill-opacity:1;stroke-width:0.87219012"
     d="m 315.94336,180.01172 c 16.75167,-0.47317 31.35346,15.26214 29.91016,31.91016 0.67095,11.01831 0.51148,23.61845 -7.77735,32.05859 -10.92165,12.75739 -32.5808,13.01024 -43.79297,0.50586 -8.38086,-8.17965 -9.06,-20.6495 -8.25,-31.60938 -1.66242,-15.8465 10.89834,-31.49388 26.88477,-32.71289 1.00515,-0.10133 2.01521,-0.15108 3.02539,-0.15234 z"
     id="path1055"
     inkscape:connector-curvature="0" />
  <path
     style="fill:#cccccc;stroke-width:0.87219012"
     d="m 331.89844,263.29883 c 0.86235,5.32188 -0.14223,10.47219 -4.67969,13.73047 -6.64065,6.87068 -18.44561,5.71545 -24.22461,-1.66797 -4.58275,-3.66942 -2.64856,-9.73963 -3.00586,-14.86524 10.11491,4.27106 21.79652,4.27692 31.91016,-0.002 0,0.9349 0,1.86979 0,2.80469 z"
     id="path1053"
     inkscape:connector-curvature="0" />
  <path
     style="fill:#008000;stroke-width:0.87219012;fill-opacity:1"
     d="m 142.35352,263.74219 c 8.36529,0.37579 12.18043,9.79781 18.25902,14.18871 11.55103,11.55103 23.10206,23.10205 34.65308,34.65308 22.37033,0.23938 44.82216,-0.45203 67.14844,0.29688 7.48276,1.55633 9.08148,12.8029 2.32617,16.38086 -6.98055,3.21189 -15.22214,0.27361 -22.61718,1.27734 -18.89714,0 -37.79427,0 -56.69141,0 -17.06804,-17.41874 -34.87876,-34.2129 -51.53516,-51.97851 -3.91046,-6.38026 0.95596,-14.93144 8.45704,-14.81836 z"
     id="path1051"
     inkscape:connector-curvature="0" />
  <path
     style="fill:#008000;stroke-width:0.87219012"
     d="m 122.76172,275.35352 c 1.24269,12.52483 13.93801,18.86495 21.19533,27.78846 11.47915,11.47872 22.95834,22.95741 34.43748,34.43614 0,10.2754 0,20.55079 0,30.82618 6.97721,0 13.95443,0 20.93164,0 -0.65435,5.66401 1.31722,13.95393 -1,17.95508 -20.43111,-0.37178 -40.96012,0.69912 -61.33993,-0.44904 -12.04051,-2.11272 -20.06644,-14.61354 -18.41202,-26.48261 0.16398,-28.04856 -0.31952,-56.14645 0.22656,-84.16601 2.31784,-5.42164 1.62192,-7.16879 3.96094,0.0918 z"
     id="path1049"
     inkscape:connector-curvature="0" />
  <path
     style="fill:#008000;stroke-width:0.87219012"
     d="m 293.57617,279.58398 c 8.04943,11.96017 25.93187,16.26607 37.61719,7.01563 3.46166,-1.70401 5.70816,-6.77459 8.91074,-7.78192 10.92723,3.77902 22.76676,5.29772 33.25137,10.19403 7.74514,4.54104 8.16462,14.53979 7.38672,22.45312 0,6.35612 0,12.71224 0,19.06836 -34.58724,0 -69.17448,0 -103.76172,0 6.30604,-11.65352 -2.34873,-27.70657 -15.86524,-27.88281 -3.50122,-0.89612 -11.96039,2.49035 -9.44335,-3.47656 1.4416,-8.45019 9.95958,-12.95955 17.77569,-13.98128 7.76617,-2.2185 15.53239,-4.43682 23.29852,-6.65544 l 0.62131,0.78357 z"
     id="path1047"
     inkscape:connector-curvature="0" />
  <path
     style="fill:#705d48;fill-opacity:1;stroke-width:0.87219012"
     d="m 92.664062,298.62891 c 4.863032,1.45532 15.872318,-3.23561 15.955078,3 0.36574,22.51714 -0.71632,45.12141 0.50977,67.58789 2.61475,16.84216 19.62396,29.04545 36.40234,27.09765 17.93164,0 35.86328,0 53.79492,0 -0.65435,5.66401 1.31722,13.95394 -1,17.95508 -25.15715,-0.23983 -50.35529,0.45523 -75.49023,-0.30078 -19.03625,-2.00447 -33.911964,-20.59954 -32.171878,-39.58594 0,-25.2513 10e-7,-50.5026 0,-75.7539 h 1 z"
     id="path1045"
     inkscape:connector-curvature="0" />
  <path
     style="fill:#004600;fill-opacity:1;stroke-width:0.87219012"
     d="m 190.34961,340.49414 c 72.76758,0 145.53516,0 218.30273,0 -0.65435,5.66401 1.31722,13.95393 -1,17.95508 -73.10091,0 -146.20182,0 -219.30273,0 0.65435,-5.66401 -1.31722,-13.95393 1,-17.95508 z"
     id="path1043"
     inkscape:connector-curvature="0" />
  <path
     style="fill:#705d48;fill-opacity:1;stroke-width:0.87219012"
     d="m 211.28125,368.4043 c 61.13867,0 122.27734,0 183.41602,0 -0.65436,5.66401 1.31721,13.95393 -1,17.95508 -6.64454,0 -13.28907,0 -19.9336,0 -1.44739,7.76574 0.5736,12.06312 9,9.95507 6.22448,0.0867 14.79812,-2.17571 11.9336,7 0,26.91016 0,53.82032 0,80.73047 -6.61849,0 -13.23698,0 -19.85547,0 -4.6517,-9.30338 -9.30339,-18.60677 -13.95508,-27.91015 -39.26498,0 -78.52995,0 -117.79492,0 -4.6517,9.30338 -9.30339,18.60677 -13.95508,27.91015 -6.61849,0 -13.23698,0 -19.85547,0 0,-29.24349 0,-58.48698 0,-87.73047 48.84245,0 97.6849,0 146.52734,0 1.44739,-7.76574 -0.57359,-12.06312 -9,-9.95507 -45.84244,0 -91.68489,-10e-6 -137.52734,0 0.65435,-5.66401 -1.31721,-13.95394 1,-17.95508 z"
     id="path1041"
     inkscape:connector-curvature="0" />
  <path
     style="fill:#705d48;fill-opacity:1;stroke-width:0.87219012"
     d="m 133.86523,424.22461 c 4.61397,1.28335 14.94354,-2.60402 15.89795,1.99 -1.92758,19.27677 -3.8559,38.55347 -5.78271,57.83031 -5.9694,0 -11.9388,0 -17.9082,0 1.99556,-19.93996 3.9888,-39.88015 5.98242,-59.82031 h 1 z"
     id="path1039"
     inkscape:connector-curvature="0" />
  <path
     style="fill:#ffffff;stroke-width:0.87219012"
     d="m 161.77344,424.22461 c 12.51758,0 25.03515,0 37.55273,0 0,19.9401 0,39.88021 0,59.82031 -15.11393,0 -30.22786,0 -45.34179,0 1.99055,-19.94033 3.98669,-39.8801 5.97851,-59.82031 h 1 z"
     id="path1037"
     inkscape:connector-curvature="0" />
  <path
     style="fill:#ffffff;stroke-width:0.87219012"
     d="m 250.48242,466.08984 c 34.75,0 69.5,0 104.25,0 2.99234,5.98495 5.98407,11.97021 8.97656,17.95508 -41.14713,0 -82.29427,0 -123.4414,0 2.99253,-5.98518 5.98583,-11.96997 8.97851,-17.95508 h 1 z"
     id="path10"
     inkscape:connector-curvature="0" />
  <g
     id="g830"
     style="fill:#000000;fill-opacity:1;stroke:none"
     transform="matrix(0.34478303,0,0,0.30655501,122.77516,8.8981884)">
    <path
       id="path828"
       d="m 393.872,454.517 c -2.304,0 -4.583,-0.804 -6.412,-2.354 L 288.145,367.969 H 68.115 C 30.556,367.968 0,337.242 0,299.474 V 103.977 C 0,66.209 30.556,35.483 68.115,35.483 h 353.77 c 37.559,0 68.115,30.727 68.115,68.494 v 195.497 c 0,37.768 -30.556,68.494 -68.115,68.494 h -18.071 v 76.549 c 0,3.891 -2.243,7.428 -5.752,9.067 -1.339,0.626 -2.769,0.933 -4.19,0.933 z M 68.115,55.483 c -26.592,0 -48.226,21.754 -48.226,48.494 v 195.497 c 0,26.739 21.634,48.494 48.226,48.494 h 223.662 c 2.346,0 4.616,0.834 6.411,2.354 l 85.737,72.685 v -65.039 c 0,-5.523 4.453,-10 9.945,-10 h 28.015 c 26.592,0 48.226,-21.755 48.226,-48.494 V 103.977 c 0,-26.74 -21.634,-48.494 -48.226,-48.494 H 68.115 Z"
       inkscape:connector-curvature="0"
       style="fill:#000000;fill-opacity:1;stroke:none" />
  </g>
  <g
     id="g844"
     style="fill:#cbae63;fill-opacity:1;stroke:none"
     transform="matrix(0.34478303,0,0,0.30655501,122.77516,8.8981884)">
    <g
       id="g834"
       style="fill:#cbae63;fill-opacity:1;stroke:none">
      <path
         id="path832"
         d="M 405.168,147.469 H 84.832 c -5.492,0 -9.944,-4.478 -9.944,-10 0,-5.523 4.452,-10 9.944,-10 h 320.335 c 5.492,0 9.944,4.477 9.944,10 0,5.522 -4.451,10 -9.943,10 z"
         inkscape:connector-curvature="0"
         style="fill:#cbae63;fill-opacity:1;stroke:none" />
    </g>
    <g
       id="g838"
       style="fill:#cbae63;fill-opacity:1;stroke:none">
      <path
         id="path836"
         d="M 405.168,211.503 H 84.832 c -5.492,0 -9.944,-4.478 -9.944,-10 0,-5.523 4.452,-10 9.944,-10 h 320.335 c 5.492,0 9.944,4.477 9.944,10 0,5.522 -4.451,10 -9.943,10 z"
         inkscape:connector-curvature="0"
         style="fill:#cbae63;fill-opacity:1;stroke:none" />
    </g>
    <g
       id="g842"
       style="fill:#cbae63;fill-opacity:1;stroke:none">
      <path
         id="path840"
         d="M 405.168,275.538 H 84.832 c -5.492,0 -9.944,-4.478 -9.944,-10 0,-5.523 4.452,-10 9.944,-10 h 320.335 c 5.492,0 9.944,4.476 9.944,10 0,5.522 -4.451,10 -9.943,10 z"
         inkscape:connector-curvature="0"
         style="fill:#cbae63;fill-opacity:1;stroke:none" />
    </g>
  </g>
  <g
     style="fill:#a0894e;fill-opacity:1;stroke:none"
     id="g848"
     transform="matrix(0.34478303,0,0,0.30655501,122.77516,8.8981884)" />
  <g
     style="fill:#a0894e;fill-opacity:1;stroke:none"
     id="g850"
     transform="matrix(0.34478303,0,0,0.30655501,122.77516,8.8981884)" />
  <g
     style="fill:#a0894e;fill-opacity:1;stroke:none"
     id="g852"
     transform="matrix(0.34478303,0,0,0.30655501,122.77516,8.8981884)" />
  <g
     style="fill:#a0894e;fill-opacity:1;stroke:none"
     id="g854"
     transform="matrix(0.34478303,0,0,0.30655501,122.77516,8.8981884)" />
  <g
     style="fill:#a0894e;fill-opacity:1;stroke:none"
     id="g856"
     transform="matrix(0.34478303,0,0,0.30655501,122.77516,8.8981884)" />
  <g
     style="fill:#a0894e;fill-opacity:1;stroke:none"
     id="g858"
     transform="matrix(0.34478303,0,0,0.30655501,122.77516,8.8981884)" />
  <g
     style="fill:#a0894e;fill-opacity:1;stroke:none"
     id="g860"
     transform="matrix(0.34478303,0,0,0.30655501,122.77516,8.8981884)" />
  <g
     style="fill:#a0894e;fill-opacity:1;stroke:none"
     id="g862"
     transform="matrix(0.34478303,0,0,0.30655501,122.77516,8.8981884)" />
  <g
     style="fill:#a0894e;fill-opacity:1;stroke:none"
     id="g864"
     transform="matrix(0.34478303,0,0,0.30655501,122.77516,8.8981884)" />
  <g
     style="fill:#a0894e;fill-opacity:1;stroke:none"
     id="g866"
     transform="matrix(0.34478303,0,0,0.30655501,122.77516,8.8981884)" />
  <g
     style="fill:#a0894e;fill-opacity:1;stroke:none"
     id="g868"
     transform="matrix(0.34478303,0,0,0.30655501,122.77516,8.8981884)" />
  <g
     style="fill:#a0894e;fill-opacity:1;stroke:none"
     id="g870"
     transform="matrix(0.34478303,0,0,0.30655501,122.77516,8.8981884)" />
  <g
     style="fill:#a0894e;fill-opacity:1;stroke:none"
     id="g872"
     transform="matrix(0.34478303,0,0,0.30655501,122.77516,8.8981884)" />
  <g
     style="fill:#a0894e;fill-opacity:1;stroke:none"
     id="g874"
     transform="matrix(0.34478303,0,0,0.30655501,122.77516,8.8981884)" />
  <g
     style="fill:#a0894e;fill-opacity:1;stroke:none"
     id="g876"
     transform="matrix(0.34478303,0,0,0.30655501,122.77516,8.8981884)" />
</svg>
