<?xml version="1.0" encoding="UTF-8" standalone="no"?>
<!-- Generator: Adobe Illustrator 19.0.0, SVG Export Plug-In . SVG Version: 6.00 Build 0)  -->

<svg
   xmlns:dc="http://purl.org/dc/elements/1.1/"
   xmlns:cc="http://creativecommons.org/ns#"
   xmlns:rdf="http://www.w3.org/1999/02/22-rdf-syntax-ns#"
   xmlns:svg="http://www.w3.org/2000/svg"
   xmlns="http://www.w3.org/2000/svg"
   xmlns:sodipodi="http://sodipodi.sourceforge.net/DTD/sodipodi-0.dtd"
   xmlns:inkscape="http://www.inkscape.org/namespaces/inkscape"
   version="1.1"
   id="Capa_1"
   x="0px"
   y="0px"
   viewBox="0 0 496 496"
   style="enable-background:new 0 0 496 496;"
   xml:space="preserve"
   sodipodi:docname="produksi.svg"
   inkscape:version="0.92.2 (5c3e80d, 2017-08-06)"><metadata
     id="metadata69"><rdf:RDF><cc:Work
         rdf:about=""><dc:format>image/svg+xml</dc:format><dc:type
           rdf:resource="http://purl.org/dc/dcmitype/StillImage" /><dc:title></dc:title></cc:Work></rdf:RDF></metadata><defs
     id="defs67" /><sodipodi:namedview
     pagecolor="#ffffff"
     bordercolor="#6123242"
     borderopacity="1"
     objecttolerance="10"
     gridtolerance="10"
     guidetolerance="10"
     inkscape:pageopacity="0"
     inkscape:pageshadow="2"
     inkscape:window-width="1366"
     inkscape:window-height="739"
     id="namedview65"
     showgrid="false"
     inkscape:zoom="0.47580645"
     inkscape:cx="86.846886"
     inkscape:cy="210.24411"
     inkscape:window-x="0"
     inkscape:window-y="0"
     inkscape:window-maximized="1"
     inkscape:current-layer="Capa_1" /><path
     style="fill:#008000;fill-opacity:1"
     d="M488,184l-80-80l-88-16c0,34.4-32,63.2-72,63.2s-72-28-72-63.2l-88,16L8,184l64,64l32-32v272h224  l64-64V216l32,32L488,184z"
     id="path2" /><path
     d="M328,496H104c-4.8,0-8-3.2-8-8V216h16v264h212.8l59.2-59.2V216h16v208c0,2.4-0.8,4-2.4,5.6l-64,64  C332,495.2,330.4,496,328,496z"
     id="path4" /><path
     style="fill:#ddbd6c;fill-opacity:1"
     d="M40,424h176c17.6,0,32,14.4,32,32l0,0c0,17.6-14.4,32-32,32H40c-17.6,0-32-14.4-32-32l0,0  C8,438.4,22.4,424,40,424z"
     id="path6" /><path
     style="fill:#ddbd6c;fill-opacity:1"
     d="M40,360h176c17.6,0,32,14.4,32,32l0,0c0,17.6-14.4,32-32,32H40c-17.6,0-32-14.4-32-32l0,0  C8,374.4,22.4,360,40,360z"
     id="path10" /><path
     style="fill:#ddbd6c;fill-opacity:1"
     d="M40,296h176c17.6,0,32,14.4,32,32l0,0c0,17.6-14.4,32-32,32H40c-17.6,0-32-14.4-32-32l0,0  C8,310.4,22.4,296,40,296z"
     id="path14" /><polygon
     style="fill:#87c851;fill-opacity:1"
     points="328,488 392,424 328,424 "
     id="polygon22" /><path
     d="M328,496c-0.8,0-2.4,0-3.2-0.8c-3.2-0.8-4.8-4-4.8-7.2v-64c0-4.8,3.2-8,8-8h64c4.8,0,8,3.2,8,8c0,2.4-0.8,4-2.4,5.6l-64,64  C332,495.2,330.4,496,328,496z M336,432v36.8l36.8-36.8H336z"
     id="path24" /><g
     id="g894"
     style="fill:#705d48;fill-opacity:1"
     transform="translate(0,-12)"><g
       id="g910"><path
         sodipodi:nodetypes="cccssssccsscscc"
         style="fill:#705d48;fill-opacity:1"
         inkscape:connector-curvature="0"
         d="m 178.54092,125.74663 -6.17381,-15.21628 66.88983,-16.298307 v -9.6 c 0,-4.8 3.2,-8 8,-8 13.6,0 24,-10.4 24,-24 0,-13.6 -10.4,-24 -24,-24 -13.6,0 -24,10.4 -24,24 h -16 c 0,-22.4 17.6,-40 40,-40 22.4,0 40,17.6 40,40 0,19.2 -13.6,35.2 -32,39.2 v 8.799997 c 0,4 -2.4,7.2 -6.4,8 z"
         id="path18" /><rect
         style="fill:#705d48;fill-opacity:1;stroke-width:0.99995011"
         x="28.942577"
         y="-332.93866"
         transform="rotate(104.03485)"
         width="16.719006"
         height="68.477242"
         id="rect26" /></g></g><rect
     x="32"
     y="320"
     width="192"
     height="16"
     id="rect28"
     style="fill:#705d48;fill-opacity:1" /><rect
     x="32"
     y="384"
     width="184"
     height="16"
     id="rect30"
     style="fill:#705d48;fill-opacity:1" /><rect
     x="32"
     y="448"
     width="184"
     height="16"
     id="rect32"
     style="fill:#705d48;fill-opacity:1" /><g
     id="g34" /><g
     id="g36" /><g
     id="g38" /><g
     id="g40" /><g
     id="g42" /><g
     id="g44" /><g
     id="g46" /><g
     id="g48" /><g
     id="g50" /><g
     id="g52" /><g
     id="g54" /><g
     id="g56" /><g
     id="g58" /><g
     id="g60" /><g
     id="g62" /><g
     id="g890"><path
       id="path8"
       d="M 216,496 H 40 C 17.6,496 0,478.4 0,456 0,433.6 17.6,416 40,416 h 176 c 22.4,0 40,17.6 40,40 0,22.4 -17.6,40 -40,40 z M 40,432 c -13.6,0 -24,10.4 -24,24 0,13.6 10.4,24 24,24 h 176 c 13.6,0 24,-10.4 24,-24 0,-13.6 -10.4,-24 -24,-24 z"
       inkscape:connector-curvature="0" /><path
       id="path12"
       d="M 216,432 H 40 C 17.6,432 0,414.4 0,392 0,369.6 17.6,352 40,352 h 176 c 22.4,0 40,17.6 40,40 0,22.4 -17.6,40 -40,40 z M 40,368 c -13.6,0 -24,10.4 -24,24 0,13.6 10.4,24 24,24 h 176 c 13.6,0 24,-10.4 24,-24 0,-13.6 -10.4,-24 -24,-24 z"
       inkscape:connector-curvature="0" /><path
       id="path16"
       d="M 216,368 H 40 C 17.6,368 0,350.4 0,328 0,305.6 17.6,288 40,288 h 176 c 22.4,0 40,17.6 40,40 0,22.4 -17.6,40 -40,40 z M 40,304 c -13.6,0 -24,10.4 -24,24 0,13.6 10.4,24 24,24 h 176 c 13.6,0 24,-10.4 24,-24 0,-13.6 -10.4,-24 -24,-24 z"
       inkscape:connector-curvature="0" /></g><path
     d="m 424,256 c -2.4,0 -4,-0.8 -5.6,-2.4 l -56,-56 11.2,-11.2 L 424,236.8 476.8,184 404,111.2 327.2,97.6 c -5.6,34.4 -38.4,61.6 -79.2,61.6 -40.8,0 -74.4,-27.2 -79.2,-61.6 L 92,111.2 19.2,184 72,236.8 l 50.4,-50.4 11.2,11.2 -56,56 c -3.2,3.2 -8,3.2 -11.2,0 l -64,-64 c -2.06218728,-2.06219 -1.6209946,-9.57901 0,-11.2 l 80,-80 c 0.8,-0.8 2.4,-1.6 4,-2.4 l 88,-16 c 2.4,-0.8 4.8,0 6.4,1.6 1.6,1.6 3.2,4 3.2,6.4 0,30.4 28.8,55.2 64,55.2 35.2,0 64,-24.8 64,-55.2 0,-4.8 3.2,-8 8,-8 h 1.6 l 88,16 c 1.6,0 3.2,0.8 4,2.4 l 80,80 c 2.03897,2.03897 1.96252,9.23748 0,11.2 l -64,64 c -1.6,1.6 -3.2,2.4 -5.6,2.4 z"
     id="path20"
     inkscape:connector-curvature="0"
     sodipodi:nodetypes="ssccccccsccccccsssssccssssscccssss" /></svg>